<svg width="48" height="48" viewBox="0 0 48 48" fill="none" xmlns="http://www.w3.org/2000/svg">
<circle cx="24" cy="24" r="24" fill="#F9F9FB"/>
<path d="M30.6667 13.3333V12C30.6667 11.2667 30.0667 10.6667 29.3333 10.6667C28.6 10.6667 28 11.2667 28 12V13.3333H20V12C20 11.2667 19.4 10.6667 18.6667 10.6667C17.9333 10.6667 17.3333 11.2667 17.3333 12V13.3333C14.3867 13.3333 12 15.72 12 18.6667V30.6667C12 33.6133 14.3867 36 17.3333 36H30.6667C33.6133 36 36 33.6133 36 30.6667V18.6667C36 15.72 33.6133 13.3333 30.6667 13.3333ZM33.3333 30.6667C33.3333 32.1333 32.1333 33.3333 30.6667 33.3333H17.3333C15.8667 33.3333 14.6667 32.1333 14.6667 30.6667V18.6667C14.6667 17.2 15.8667 16 17.3333 16V17.3333C17.3333 18.0667 17.9333 18.6667 18.6667 18.6667C19.4 18.6667 20 18.0667 20 17.3333V16H28V17.3333C28 18.0667 28.6 18.6667 29.3333 18.6667C30.0667 18.6667 30.6667 18.0667 30.6667 17.3333V16C32.1333 16 33.3333 17.2 33.3333 18.6667V30.6667Z" fill="#4D4D4F"/>
<path d="M20.9467 23.0667C20.4533 22.5733 19.5467 22.5733 19.0533 23.0667C18.9333 23.1867 18.84 23.3333 18.7733 23.4933C18.7067 23.6667 18.6667 23.84 18.6667 24.0133C18.6667 24.1866 18.7067 24.36 18.7733 24.52C18.84 24.68 18.9333 24.8267 19.0533 24.9467C19.3067 25.2 19.6533 25.3466 20 25.3466C20.1733 25.3466 20.3467 25.3067 20.5067 25.24C20.6667 25.1733 20.8133 25.08 20.9467 24.9467C21.0667 24.8267 21.16 24.68 21.2267 24.52C21.3067 24.36 21.3333 24.1866 21.3333 24.0133C21.3333 23.84 21.3067 23.6667 21.2267 23.4933C21.16 23.3333 21.0667 23.1867 20.9467 23.0667Z" fill="#4D4D4F"/>
<path d="M20.9467 27.0667C20.88 27 20.8133 26.9467 20.7467 26.9067C20.6667 26.8533 20.5867 26.8133 20.5067 26.7733C20.4267 26.7467 20.3467 26.72 20.2667 26.7067C20.0933 26.6667 19.9067 26.6667 19.7467 26.7067C19.6533 26.7067 19.5733 26.7467 19.4933 26.7733C19.4133 26.8133 19.3333 26.8533 19.2667 26.9067C19.1867 26.9467 19.12 27 19.0533 27.0667C18.9333 27.1867 18.84 27.3333 18.7733 27.4933C18.7067 27.6667 18.6667 27.8267 18.6667 28.0133C18.6667 28.3733 18.8133 28.7067 19.0533 28.9467C19.3067 29.2 19.6533 29.3466 20 29.3466C20.3467 29.3466 20.6933 29.2 20.9467 28.9467C21.2 28.7067 21.3333 28.3733 21.3333 28.0133C21.3333 27.8267 21.2933 27.6667 21.2267 27.4933C21.16 27.3333 21.0667 27.1867 20.9467 27.0667Z" fill="#4D4D4F"/>
<path d="M24.9467 23.0667C24.88 23 24.8133 22.9466 24.7467 22.8933C24.6667 22.8533 24.5867 22.8133 24.5067 22.7733C24.4267 22.7467 24.3467 22.72 24.2667 22.7067C24 22.6533 23.7333 22.68 23.4933 22.7733C23.3333 22.84 23.1867 22.9467 23.0533 23.0667C22.9333 23.1867 22.84 23.3333 22.7733 23.4933C22.7067 23.6667 22.6667 23.84 22.6667 24.0133C22.6667 24.1866 22.7067 24.36 22.7733 24.52C22.84 24.68 22.9333 24.8267 23.0533 24.9467C23.1867 25.08 23.3333 25.1733 23.4933 25.24C23.6533 25.3067 23.8267 25.3466 24 25.3466C24.1733 25.3466 24.3467 25.3067 24.5067 25.24C24.6667 25.1733 24.8133 25.08 24.9467 24.9467C25.0667 24.8267 25.16 24.68 25.2267 24.52C25.3067 24.36 25.3333 24.1866 25.3333 24.0133C25.3333 23.84 25.3067 23.6667 25.2267 23.4933C25.16 23.3333 25.0667 23.1867 24.9467 23.0667Z" fill="#4D4D4F"/>
<path d="M24.9467 27.0666C24.8267 26.9466 24.68 26.84 24.5067 26.7733C24.1867 26.64 23.8133 26.64 23.4933 26.7733C23.3333 26.84 23.1867 26.9466 23.0533 27.0666C22.9333 27.1866 22.84 27.3333 22.7733 27.4933C22.7067 27.6666 22.6667 27.8266 22.6667 28.0133C22.6667 28.1866 22.7067 28.36 22.7733 28.52C22.84 28.68 22.9333 28.8266 23.0533 28.9466C23.1867 29.08 23.3333 29.1733 23.4933 29.24C23.6533 29.3066 23.8267 29.3466 24 29.3466C24.36 29.3466 24.6933 29.2 24.9467 28.9466C25.0667 28.8266 25.16 28.68 25.24 28.52C25.3067 28.36 25.3333 28.1866 25.3333 28.0133C25.3333 27.84 25.3067 27.6666 25.2267 27.4933C25.16 27.3333 25.0667 27.1866 24.9467 27.0666Z" fill="#4D4D4F"/>
<path d="M28.9467 23.0666C28.8267 22.9466 28.68 22.84 28.5067 22.7733C28.0133 22.5733 27.4267 22.6933 27.0533 23.0666C26.9333 23.1866 26.84 23.3333 26.7733 23.4933C26.7067 23.6666 26.6667 23.84 26.6667 24.0133C26.6667 24.1866 26.7067 24.36 26.7733 24.52C26.84 24.68 26.9333 24.8266 27.0533 24.9466C27.1867 25.08 27.3333 25.1733 27.4933 25.24C27.6533 25.3066 27.8267 25.3466 28 25.3466C28.1733 25.3466 28.3467 25.3066 28.5067 25.24C28.6667 25.1733 28.8133 25.08 28.9467 24.9466C29.0667 24.8266 29.16 24.68 29.2267 24.52C29.3067 24.36 29.3333 24.1866 29.3333 24.0133C29.3333 23.84 29.3067 23.6666 29.2267 23.4933C29.16 23.3333 29.0667 23.1866 28.9467 23.0666Z" fill="#4D4D4F"/>
<path d="M28.9467 27.0667C28.88 27 28.8133 26.9467 28.7467 26.9067C28.6667 26.8533 28.5867 26.8133 28.5067 26.7733C28.4267 26.7467 28.3467 26.72 28.2667 26.7067C28.0933 26.6667 27.9067 26.6667 27.7467 26.7067C27.6533 26.7067 27.5733 26.7467 27.4933 26.7733C27.4133 26.8133 27.3333 26.8533 27.2667 26.9067C27.1867 26.9467 27.12 27 27.0533 27.0667C26.9333 27.1867 26.84 27.3333 26.7733 27.4933C26.7067 27.6667 26.6667 27.8267 26.6667 28.0133C26.6667 28.3733 26.8133 28.7067 27.0533 28.9467C27.3067 29.2 27.6533 29.3466 28 29.3466C28.3467 29.3466 28.6933 29.2 28.9467 28.9467C29.2 28.7067 29.3333 28.3733 29.3333 28.0133C29.3333 27.8267 29.2933 27.6667 29.2267 27.4933C29.16 27.3333 29.0667 27.1867 28.9467 27.0667Z" fill="#4D4D4F"/>
</svg>
