<svg width="48" height="48" viewBox="0 0 48 48" fill="none" xmlns="http://www.w3.org/2000/svg">
<circle cx="24" cy="24" r="24" fill="#F9F9FB"/>
<path d="M34.6267 27.8133L33.8667 22.2666C33.24 17.6399 29.6667 14.0533 25.32 13.4399V12.0133C25.32 11.28 24.72 10.68 23.9867 10.68C23.2534 10.68 22.6534 11.28 22.6534 12.0133V13.4399C18.3067 14.0666 14.76 17.6399 14.12 22.2666L13.36 27.8133C13.16 29.2533 13.5867 30.6933 14.5333 31.76C15.4267 32.7733 16.6934 33.3599 18.0267 33.3599H19.4267C19.72 35.5866 21.6134 37.32 23.92 37.32C26.2267 37.32 28.12 35.5866 28.4133 33.3599H29.92C31.2534 33.3599 32.52 32.7733 33.4133 31.76C34.36 30.68 34.7867 29.24 34.5867 27.8133H34.6267ZM23.9467 34.6667C23.1067 34.6667 22.4133 34.12 22.16 33.3733H25.7334C25.48 34.12 24.7867 34.6667 23.9467 34.6667ZM31.44 30.0133C31.0534 30.4533 30.52 30.7066 29.9467 30.7066H18.04C17.4667 30.7066 16.9467 30.4667 16.5467 30.0133C16.12 29.52 15.92 28.84 16.0133 28.1733L16.7734 22.6266C17.28 18.8533 20.3867 16 24 16C27.6133 16 30.7067 18.8533 31.2267 22.6266L31.9867 28.1733C32.08 28.84 31.88 29.52 31.4533 30.0133H31.44Z" fill="#009CB4"/>
<circle cx="39" cy="9" r="9" fill="#009CB4"/>
<path d="M42.1098 10.2375V11.3875H41.1973V13H39.9723V11.3875H36.0098V10.2375L38.9598 4H40.2223L37.2723 10.2375H39.9723V7.7625H41.1973V10.2375H42.1098Z" fill="white"/>
</svg>
